<?xml version="1.0" encoding="UTF-8"?>
<svg xmlns="http://www.w3.org/2000/svg" xmlns:xlink="http://www.w3.org/1999/xlink" width="480px" height="480px" viewBox="0 0 480 480" version="1.1">
<g id="surface18398">
<path style=" stroke:none;fill-rule:nonzero;fill:rgb(80%,80%,80%);fill-opacity:1;" d="M 218.808594 61.359375 L 175.660156 51.621094 C 140.460938 43.671875 105.488281 65.761719 97.539062 100.960938 L 87.710938 144.46875 C 116.03125 99.5 163.570312 67.878906 218.808594 61.359375 Z M 61.359375 261.191406 L 51.621094 304.339844 C 43.671875 339.539062 65.761719 374.511719 100.960938 382.460938 L 144.46875 392.289062 C 99.5 363.960938 67.878906 316.429688 61.359375 261.191406 Z M 379.039062 97.539062 L 335.53125 87.710938 C 380.5 116.03125 412.121094 163.570312 418.640625 218.800781 L 428.378906 175.648438 C 436.328125 140.46875 414.238281 105.488281 379.039062 97.539062 Z M 261.191406 418.640625 L 304.339844 428.378906 C 339.539062 436.328125 374.511719 414.238281 382.460938 379.039062 L 392.289062 335.53125 C 363.96875 380.5 316.429688 412.121094 261.191406 418.640625 Z M 261.191406 418.640625 "/>
<path style=" stroke:none;fill-rule:nonzero;fill:rgb(40%,40%,40%);fill-opacity:1;" d="M 240 80 C 151.628906 80 80 151.628906 80 240 C 80 328.371094 151.628906 400 240 400 C 328.371094 400 400 328.371094 400 240 C 400 151.628906 328.371094 80 240 80 Z M 200 130 C 222.089844 130 240 147.910156 240 170 C 240 192.089844 222.089844 210 200 210 C 177.910156 210 160 192.089844 160 170 C 160 147.910156 177.910156 130 200 130 Z M 170 320 C 147.910156 320 130 302.089844 130 280 C 130 257.910156 147.910156 240 170 240 C 192.089844 240 210 257.910156 210 280 C 210 302.089844 192.089844 320 170 320 Z M 220 240 C 220 228.949219 228.949219 220 240 220 C 251.050781 220 260 228.949219 260 240 C 260 251.050781 251.050781 260 240 260 C 228.949219 260 220 251.050781 220 240 Z M 280 350 C 257.910156 350 240 332.089844 240 310 C 240 287.910156 257.910156 270 280 270 C 302.089844 270 320 287.910156 320 310 C 320 332.089844 302.089844 350 280 350 Z M 310 240 C 287.910156 240 270 222.089844 270 200 C 270 177.910156 287.910156 160 310 160 C 332.089844 160 350 177.910156 350 200 C 350 222.089844 332.089844 240 310 240 Z M 310 240 "/>
</g>
</svg>
